<svg width="1504" height="890" viewBox="0 0 1504 890" fill="none" xmlns="http://www.w3.org/2000/svg">
<path d="M38 0.5H357C377.714 0.5 394.5 17.2861 394.5 38V63.6699C394.5 70.7561 400.244 76.5 407.33 76.5H1096.66C1103.75 76.4999 1109.49 70.756 1109.49 63.6699V38C1109.5 17.286 1126.29 0.5 1147 0.5H1466C1486.71 0.5 1503.5 17.2861 1503.5 38V852C1503.5 872.714 1486.71 889.5 1466 889.5H972C951.286 889.5 934.5 872.714 934.5 852V833.5C934.5 822.454 925.546 813.5 914.5 813.5H589.5C578.454 813.5 569.5 822.454 569.5 833.5V852C569.5 872.714 552.714 889.5 532 889.5H38C17.2861 889.5 0.5 872.714 0.5 852V38C0.5 17.2861 17.2861 0.5 38 0.5Z" fill="white" stroke="#E4E4E4"/>
</svg>
