<svg width="624" height="707" viewBox="0 0 624 707" fill="none" xmlns="http://www.w3.org/2000/svg">
<path d="M0.191559 39.1V182.74C0.191559 190.07 6.13156 196.02 13.4716 196.02C20.8016 196.02 26.7516 190.08 26.7516 182.74V41.47C26.7516 36.76 30.5716 32.95 35.2716 32.95H583.622C591.262 32.95 597.452 39.14 597.452 46.78V660.11C597.452 667.44 591.512 673.39 584.172 673.39H43.0515C34.0015 673.39 26.6616 666.05 26.6616 657V508.23C26.6616 500.9 20.7216 494.95 13.3816 494.95C6.05156 494.95 0.101562 500.89 0.101562 508.23V678.29C0.101562 693.8 12.6715 706.37 28.1815 706.37H596.822C611.832 706.37 624.002 694.2 624.002 679.19V25.42C624.002 11.38 612.622 0 598.582 0H39.2816C17.6916 0 0.181549 17.5 0.181549 39.1H0.191559Z" fill="#F0BB2A"/>
<path d="M309.06 344.88C298.36 333.42 283.1 323.84 263.27 316.12L245.41 309.17C222.27 300.36 210.7 288.46 210.7 273.47C210.7 263.11 215 254.62 223.59 248.01C232.18 241.4 241.77 238.09 252.35 238.09C265.73 238.09 276.71 242.72 285.28 251.96C290.05 257.11 297.71 258.34 303.74 254.73C311.45 250.11 313.37 239.59 307.52 232.77C293.94 216.92 275.77 209 253.01 209C233.17 209 215.98 214.9 201.44 226.68C186.89 238.47 179.61 254.07 179.61 273.46C179.61 289.33 184.41 302.01 193.99 311.48C203.58 320.96 216.85 329.34 233.83 336.61L251.02 343.89C264.46 349.4 274.99 355.62 282.59 362.57C290.19 369.51 293.99 379.05 293.99 391.16C293.99 404.39 289.64 415.79 280.93 425.38C272.22 434.96 261.26 439.76 248.03 439.76C234.8 439.76 222.85 435.24 213.49 426.2C207.46 420.39 203.42 413.67 201.36 406.04C199.35 398.58 191.61 394.2 184.05 395.79L182.82 396.05C174.4 397.82 169.17 406.47 171.76 414.68C175.99 428.1 183.34 439.59 193.81 449.18C208.14 462.3 225.33 468.85 245.39 468.85C267.87 468.85 286.77 461.53 302.09 446.87C317.41 432.21 325.07 413.64 325.07 391.16C325.07 371.77 319.73 356.34 309.04 344.88H309.06Z" fill="#F0BB2A"/>
<path d="M74.87 324.63H9V353.25H74.87V324.63Z" fill="#F0BB2A"/>
<path d="M143.26 209.01H9V237.63H143.26V209.01Z" fill="#F0BB2A"/>
<path d="M143.26 440.24H9V468.86H143.26V440.24Z" fill="#F0BB2A"/>
</svg>
