<svg width="1843" height="786" viewBox="0 0 1843 786" fill="none" xmlns="http://www.w3.org/2000/svg">
<path d="M354.789 276.05L308.459 392C304.439 402.06 290.189 402.05 286.189 391.98L240.129 276.08C238.319 271.52 233.899 268.52 228.989 268.52H184.749C176.179 268.52 170.379 277.25 173.699 285.15L268.419 510.45C270.289 514.9 274.639 517.79 279.469 517.79H313.839C318.639 517.79 322.979 514.93 324.859 510.51L421.079 285.21C424.459 277.3 418.659 268.52 410.059 268.52H365.899C360.999 268.52 356.589 271.51 354.769 276.06L354.789 276.05Z" fill="#4DAF4E"/>
<path d="M792.202 397.88C781.512 386.42 766.252 376.84 746.412 369.12L728.562 362.17C705.422 353.36 693.842 341.46 693.842 326.47C693.842 316.11 698.142 307.62 706.742 301.01C715.332 294.4 724.922 291.09 735.502 291.09C748.882 291.09 759.862 295.72 768.432 304.96C773.202 310.11 780.862 311.34 786.892 307.73C794.602 303.11 796.522 292.59 790.672 285.77C777.092 269.92 758.922 262 736.172 262C716.332 262 699.142 267.9 684.592 279.68C670.052 291.47 662.772 307.07 662.772 326.46C662.772 342.33 667.562 355.01 677.152 364.48C686.732 373.96 700.012 382.34 716.992 389.61L734.182 396.89C747.632 402.4 758.152 408.62 765.762 415.57C773.362 422.51 777.162 432.05 777.162 444.16C777.162 457.39 772.802 468.79 764.102 478.38C755.392 487.96 744.432 492.76 731.202 492.76C717.972 492.76 706.012 488.24 696.652 479.2C690.632 473.39 686.592 466.67 684.532 459.04C682.472 451.41 674.772 447.2 667.222 448.79L665.992 449.05C657.572 450.82 652.342 459.47 654.932 467.68C659.162 481.1 666.512 492.59 676.982 502.18C691.302 515.3 708.502 521.85 728.562 521.85C751.042 521.85 769.942 514.53 785.262 499.87C800.582 485.21 808.242 466.64 808.242 444.16C808.242 424.77 802.892 409.34 792.202 397.88Z" fill="#F0BB2A"/>
<path d="M955.841 285.31C940.741 273.3 914.791 267.29 877.991 267.29H850.551C845.981 267.29 842.281 270.99 842.281 275.56V508.3C842.281 512.87 845.981 516.57 850.551 516.57H865.091C869.661 516.57 873.361 512.87 873.361 508.3V420.36C873.361 415.79 877.061 412.09 881.631 412.09H891.221C917.011 412.09 938.001 406.14 954.191 394.24C970.391 382.34 978.491 364.04 978.491 339.36C978.491 314.68 970.941 297.32 955.841 285.31ZM943.771 362.51C940.021 368.9 934.731 373.59 927.911 376.56C921.081 379.54 914.191 381.57 907.241 382.68C900.301 383.78 892.311 384.33 883.271 384.33H881.621C877.051 384.33 873.351 380.63 873.351 376.06V303.33C873.351 298.76 877.051 295.06 881.621 295.06C890.661 295.06 898.591 295.56 905.431 296.55C912.261 297.55 919.311 299.42 926.591 302.17C933.871 304.93 939.481 309.39 943.451 315.56C947.421 321.73 949.401 329.44 949.401 338.7C949.401 347.96 947.531 356.12 943.781 362.51H943.771Z" fill="#F0BB2A"/>
<path d="M1178.91 495.42L1081.27 282.22C1077.66 274.34 1066.46 274.34 1062.85 282.22L965.21 495.42L959.72 507.39C956.64 514.1 961.55 521.75 968.93 521.75H980.07C984.07 521.75 987.69 519.4 989.32 515.74L1062.83 350.92C1066.4 342.92 1077.75 342.91 1081.33 350.9L1155.25 515.76C1156.88 519.4 1160.5 521.75 1164.5 521.75H1175.2C1182.58 521.75 1187.49 514.11 1184.41 507.39L1178.92 495.42H1178.91Z" fill="#F0BB2A"/>
<path d="M1327.6 290.44C1345.44 290.44 1361.51 294.41 1375.82 302.35C1383.71 306.73 1393.4 301.23 1393.4 292.2V285.69C1393.4 281.36 1391.02 277.34 1387.19 275.32C1370.41 266.44 1351.54 262.01 1330.58 262.01C1293.77 262.01 1262.47 274.69 1236.69 300.03C1210.9 325.38 1198 356.45 1198 393.26C1198 430.07 1210.73 459.61 1236.19 484.51C1261.64 509.41 1292.22 521.86 1327.93 521.86C1349.22 521.86 1368.92 517.19 1387.04 507.84C1390.94 505.83 1393.39 501.78 1393.39 497.39V490.65C1393.39 481.56 1383.55 476.02 1375.69 480.58C1360.92 489.14 1344.67 493.42 1326.94 493.42C1299.38 493.42 1276.19 483.45 1257.35 463.5C1238.5 443.56 1229.09 419.81 1229.09 392.25C1229.09 364.69 1238.62 340.3 1257.68 320.35C1276.74 300.41 1300.05 290.43 1327.6 290.43V290.44Z" fill="#F0BB2A"/>
<path d="M622.692 466.75L554.672 286.12C550.692 275.56 540.592 268.56 529.302 268.56H495.922C484.702 268.56 474.642 275.47 470.622 285.94L401.082 466.75L395.692 480.77C388.862 498.53 401.972 517.61 420.992 517.61H430.282C441.672 517.61 451.842 510.49 455.752 499.79L511.622 346.72L512.022 345.59L566.742 499.58C570.582 510.39 580.812 517.61 592.282 517.61H602.662C621.612 517.61 634.712 498.67 628.032 480.94L622.682 466.76L622.692 466.75Z" fill="#4DAF4E"/>
<path d="M1270 414.34C1282.38 414.34 1292.41 404.307 1292.41 391.93C1292.41 379.553 1282.38 369.52 1270 369.52C1257.62 369.52 1247.59 379.553 1247.59 391.93C1247.59 404.307 1257.62 414.34 1270 414.34Z" fill="#F0BB2A"/>
<path d="M137.09 462.84H5C2.23858 462.84 0 465.079 0 467.84V512.78C0 515.542 2.23858 517.78 5 517.78H137.09C139.851 517.78 142.09 515.542 142.09 512.78V467.84C142.09 465.079 139.851 462.84 137.09 462.84Z" fill="#4DAF4E"/>
<path d="M137.09 268.51H5C2.23858 268.51 0 270.749 0 273.51V318.45C0 321.212 2.23858 323.45 5 323.45H137.09C139.851 323.45 142.09 321.212 142.09 318.45V273.51C142.09 270.749 139.851 268.51 137.09 268.51Z" fill="#4DAF4E"/>
<path d="M65.82 365.68H5C2.23858 365.68 0 367.919 0 370.68V415.62C0 418.382 2.23858 420.62 5 420.62H65.82C68.5814 420.62 70.82 418.382 70.82 415.62V370.68C70.82 367.919 68.5814 365.68 65.82 365.68Z" fill="#4DAF4E"/>
<g clip-path="url(#clip0_98_7163)">
<path d="M1734.06 399.49C1723.36 388.03 1708.1 378.45 1688.27 370.73L1670.41 363.78C1647.27 354.97 1635.7 343.07 1635.7 328.08C1635.7 317.72 1640 309.23 1648.59 302.62C1657.18 296.01 1666.77 292.7 1677.35 292.7C1690.73 292.7 1701.71 297.33 1710.28 306.57C1715.05 311.72 1722.71 312.95 1728.74 309.34C1736.45 304.72 1738.37 294.2 1732.52 287.38C1718.94 271.53 1700.77 263.61 1678.01 263.61C1658.17 263.61 1640.98 269.51 1626.44 281.29C1611.89 293.08 1604.61 308.68 1604.61 328.07C1604.61 343.94 1609.41 356.62 1618.99 366.09C1628.58 375.57 1641.85 383.95 1658.83 391.22L1676.02 398.5C1689.46 404.01 1699.99 410.23 1707.59 417.18C1715.19 424.12 1718.99 433.66 1718.99 445.77C1718.99 459 1714.64 470.4 1705.93 479.99C1697.22 489.57 1686.26 494.37 1673.03 494.37C1659.8 494.37 1647.85 489.85 1638.49 480.81C1632.46 475 1628.42 468.28 1626.36 460.65C1624.35 453.19 1616.61 448.81 1609.05 450.4L1607.82 450.66C1599.4 452.43 1594.17 461.08 1596.76 469.29C1600.99 482.71 1608.34 494.2 1618.81 503.79C1633.14 516.91 1650.33 523.46 1670.39 523.46C1692.87 523.46 1711.77 516.14 1727.09 501.48C1742.41 486.82 1750.07 468.25 1750.07 445.77C1750.07 426.38 1744.73 410.95 1734.04 399.49H1734.06Z" fill="#F0BB2A"/>
<path d="M1499.87 379.24H1434V407.86H1499.87V379.24Z" fill="#F0BB2A"/>
<path d="M1568.26 263.62H1434V292.24H1568.26V263.62Z" fill="#F0BB2A"/>
<path d="M1568.26 494.85H1434V523.47H1568.26V494.85Z" fill="#F0BB2A"/>
</g>
<path d="M490.192 39.1V227.74C490.192 235.07 496.132 241.02 503.472 241.02C510.802 241.02 516.752 235.08 516.752 227.74V41.47C516.752 36.76 520.572 32.95 525.272 32.95H1802.62C1810.26 32.95 1816.45 39.14 1816.45 46.78V739.11C1816.45 746.44 1810.51 752.39 1803.17 752.39H326.052C317.002 752.39 309.662 745.05 309.662 736V553.23C309.662 545.9 303.722 539.95 296.382 539.95C289.052 539.95 283.102 545.89 283.102 553.23V757.29C283.102 772.8 295.672 785.37 311.182 785.37H1815.82C1830.83 785.37 1843 773.2 1843 758.19V25.42C1843 11.38 1831.62 0 1817.58 0H529.282C507.692 0 490.182 17.5 490.182 39.1H490.192Z" fill="#F0BB2A"/>
<path d="M450.83 657.73C446.86 657.73 443.38 656.84 440.41 655.06C437.43 653.28 435.12 650.78 433.47 647.56C431.82 644.34 431 640.58 431 636.28V620.49C431 616.16 431.82 612.39 433.47 609.17C435.12 605.95 437.43 603.45 440.41 601.67C443.39 599.89 446.86 599 450.83 599C454.12 599 457.13 599.69 459.86 601.08C462.59 602.46 464.88 604.41 466.72 606.92C468.56 609.43 469.81 612.36 470.46 615.71H463.56C462.99 613.68 462.05 611.91 460.76 610.39C459.47 608.87 457.95 607.69 456.21 606.85C454.47 606.01 452.68 605.58 450.82 605.58C446.93 605.58 443.8 606.95 441.43 609.68C439.07 612.41 437.88 616.02 437.88 620.5V636.29C437.88 640.78 439.06 644.38 441.43 647.09C443.79 649.81 446.92 651.17 450.82 651.17C453.59 651.17 456.19 650.29 458.62 648.54C461.05 646.79 462.7 644.29 463.56 641.04H470.46C469.81 644.39 468.55 647.32 466.7 649.83C464.85 652.34 462.56 654.28 459.84 655.67C457.12 657.06 454.12 657.75 450.83 657.75V657.73Z" fill="white"/>
<path d="M496.641 657.73C491.311 657.73 487.181 656.17 484.261 653.04C481.331 649.91 479.871 645.51 479.871 639.84V633.15C479.871 627.53 481.331 623.18 484.261 620.09C487.191 617 491.311 615.46 496.641 615.46C501.971 615.46 506.101 617 509.021 620.09C511.951 623.18 513.411 627.53 513.411 633.15V639.96C513.411 645.61 511.951 649.98 509.021 653.08C506.091 656.18 501.971 657.73 496.641 657.73ZM496.601 651.24C499.791 651.24 502.251 650.26 503.991 648.29C505.731 646.33 506.601 643.55 506.601 639.96V633.15C506.601 629.59 505.731 626.83 503.991 624.88C502.251 622.93 499.791 621.95 496.601 621.95C493.411 621.95 491.031 622.93 489.291 624.88C487.551 626.83 486.681 629.59 486.681 633.15V639.96C486.681 643.55 487.551 646.33 489.291 648.29C491.031 650.26 493.461 651.24 496.601 651.24Z" fill="white"/>
<path d="M524.777 633.27H551.107V639.76H524.777V633.27Z" fill="white"/>
<path d="M582.701 657.73C578.731 657.73 575.251 656.84 572.281 655.06C569.301 653.28 566.991 650.78 565.341 647.56C563.691 644.34 562.871 640.58 562.871 636.28V620.49C562.871 616.16 563.691 612.39 565.341 609.17C566.991 605.95 569.301 603.45 572.281 601.67C575.261 599.89 578.731 599 582.701 599C585.991 599 589.001 599.69 591.731 601.08C594.461 602.46 596.751 604.41 598.591 606.92C600.431 609.43 601.681 612.36 602.331 615.71H595.431C594.861 613.68 593.921 611.91 592.631 610.39C591.341 608.87 589.821 607.69 588.081 606.85C586.341 606.01 584.551 605.58 582.691 605.58C578.801 605.58 575.671 606.95 573.301 609.68C570.941 612.41 569.751 616.02 569.751 620.5V636.29C569.751 640.78 570.931 644.38 573.301 647.09C575.661 649.81 578.791 651.17 582.691 651.17C585.461 651.17 588.061 650.29 590.491 648.54C592.921 646.79 594.571 644.29 595.431 641.04H602.331C601.681 644.39 600.421 647.32 598.571 649.83C596.721 652.34 594.431 654.28 591.711 655.67C588.991 657.06 585.991 657.75 582.701 657.75V657.73Z" fill="white"/>
<path d="M612.91 657.13V616.05H619.73V657.13H612.91ZM636.07 624.6C635.31 623.73 634.35 623.07 633.17 622.62C631.99 622.17 630.64 621.95 629.09 621.95C626.11 621.95 623.81 622.76 622.17 624.38C620.54 626 619.72 628.25 619.72 631.13L618.9 623.21C620.26 620.78 622.04 618.88 624.23 617.51C626.42 616.14 628.85 615.45 631.52 615.45C633.37 615.45 635.05 615.72 636.56 616.26C638.06 616.8 639.37 617.6 640.5 618.65L636.07 624.59V624.6Z" fill="white"/>
<path d="M663.029 657.73C657.359 657.73 652.969 656.13 649.859 652.92C646.749 649.71 645.199 645.18 645.199 639.33V634.7C645.199 628.58 646.699 623.84 649.689 620.49C652.679 617.14 656.889 615.46 662.329 615.46C667.449 615.46 671.409 617.23 674.219 620.78C677.029 624.33 678.429 629.32 678.429 635.76V639.44H650.019V633.66H671.999V633.46C671.899 629.74 670.999 626.86 669.319 624.81C667.629 622.77 665.299 621.74 662.329 621.74C658.929 621.74 656.299 622.83 654.429 625.01C652.559 627.19 651.629 630.27 651.629 634.25V639.47C651.629 643.24 652.619 646.15 654.609 648.18C656.589 650.21 659.399 651.23 663.039 651.23C664.789 651.23 666.529 650.87 668.249 650.14C669.969 649.41 671.499 648.39 672.829 647.07L677.379 651.58C675.389 653.53 673.149 655.04 670.639 656.11C668.129 657.18 665.599 657.71 663.039 657.71L663.029 657.73Z" fill="white"/>
<path d="M702.408 657.73C697.548 657.73 693.838 656.65 691.278 654.5C688.718 652.35 687.438 649.19 687.438 645.02C687.438 640.85 688.618 638.01 690.968 635.94C693.318 633.87 696.718 632.83 701.158 632.83H713.698L714.247 638.73H701.198C698.848 638.73 697.058 639.26 695.828 640.33C694.598 641.4 693.987 642.96 693.987 645.02C693.987 647.24 694.777 648.91 696.357 650.05C697.937 651.18 700.248 651.75 703.278 651.75C706.548 651.75 709.038 651.41 710.758 650.72C712.478 650.03 713.348 649.02 713.348 647.67L714.167 653.25C713.407 654.25 712.457 655.08 711.307 655.74C710.157 656.4 708.838 656.89 707.348 657.22C705.858 657.55 704.218 657.72 702.408 657.72V657.73ZM713.338 657.13V631.09C713.338 628.08 712.538 625.75 710.948 624.09C709.358 622.43 707.097 621.6 704.167 621.6C702.417 621.6 700.688 621.88 698.978 622.43C697.268 622.98 695.748 623.79 694.408 624.84L689.427 621.4C690.967 619.53 692.998 618.07 695.518 617.03C698.038 615.99 700.837 615.47 703.927 615.47C709.017 615.47 712.968 616.8 715.758 619.47C718.558 622.14 719.948 625.89 719.948 630.75V657.15H713.328L713.338 657.13Z" fill="white"/>
<path d="M728.98 622.15V616.06H747.32V622.15H728.98ZM742.7 657.33C739.36 657.33 736.93 656.39 735.43 654.52C733.93 652.65 733.18 649.96 733.18 646.45V604.11H740V646.53C740 647.9 740.29 648.96 740.88 649.72C741.47 650.47 742.34 650.85 743.49 650.85H747.33V657.34H742.71L742.7 657.33Z" fill="white"/>
<path d="M758.879 606.48V599.59H765.699V606.48H758.879ZM758.879 657.13V616.05H765.699V657.13H758.879Z" fill="white"/>
<path d="M778.43 657.13V616.05H785.25V657.13H778.43ZM804.3 657.13V632.24C804.3 628.97 803.46 626.44 801.77 624.64C800.08 622.84 797.7 621.95 794.62 621.95C791.54 621.95 789.34 622.74 787.7 624.33C786.07 625.91 785.25 628.16 785.25 631.06L784.43 623.14C785.81 620.5 787.62 618.56 789.86 617.32C792.09 616.08 794.56 615.46 797.25 615.46C801.67 615.46 805.08 616.92 807.5 619.83C809.92 622.75 811.12 626.87 811.12 632.2V657.13H804.3Z" fill="white"/>
<path d="M836.15 657.76C831.68 657.76 828.22 656.31 825.77 653.41C823.31 650.51 822.09 646.42 822.09 641.14V632.16C822.09 626.83 823.29 622.71 825.68 619.79C828.07 616.87 831.43 615.42 835.77 615.42C838.43 615.42 840.87 616.01 843.08 617.18C845.29 618.35 847.06 620.22 848.39 622.78L847.57 630.93C847.57 629.16 847.21 627.57 846.49 626.16C845.77 624.75 844.73 623.62 843.37 622.78C842.01 621.94 840.35 621.51 838.39 621.51C835.36 621.51 833.02 622.45 831.38 624.32C829.73 626.19 828.91 628.83 828.91 632.23V641.13C828.91 644.48 829.73 647.07 831.38 648.91C833.03 650.74 835.36 651.66 838.39 651.66C840.35 651.66 842.01 651.22 843.37 650.35C844.73 649.48 845.77 648.32 846.49 646.87C847.21 645.42 847.57 643.81 847.57 642.04L848.12 650.67C847.23 652.91 845.77 654.65 843.73 655.89C841.69 657.13 839.17 657.75 836.17 657.75L836.15 657.76ZM836.9 673.83C833.82 673.83 831.07 673.26 828.67 672.11C826.27 670.96 824.4 669.35 823.07 667.26L827.69 663.07C828.81 664.6 830.17 665.78 831.77 666.61C833.36 667.44 835.04 667.86 836.79 667.86C840.24 667.86 842.9 666.9 844.76 664.99C846.63 663.08 847.56 660.38 847.56 656.9V616.06H854.38V655.91C854.38 661.61 852.86 666.02 849.82 669.15C846.78 672.28 842.47 673.84 836.91 673.84L836.9 673.83Z" fill="white"/>
<path d="M888.859 657.13V599.59H895.679V657.13H888.859ZM892.739 606.08V599.59H925.459V606.08H892.739ZM892.739 631.8V625.31H921.149V631.8H892.739ZM892.739 657.13V650.64H925.459V657.13H892.739Z" fill="white"/>
<path d="M932.121 657.13L947.991 634.45L951.481 640.5L939.681 657.12H932.121V657.13ZM961.161 657.13L948.231 638.09L932.561 616.05H940.161L952.661 634.49L968.731 657.13H961.171H961.161ZM953.171 638.21L950.031 632.27L960.491 616.04H968.091L953.161 638.2L953.171 638.21Z" fill="white"/>
<path d="M977.539 673.83V616.05H984.359V673.83H977.539ZM995.759 657.73C992.939 657.73 990.479 657.17 988.389 656.05C986.299 654.93 984.769 653.14 983.809 650.69L984.359 642.1C984.359 643.84 984.719 645.44 985.439 646.89C986.159 648.34 987.199 649.5 988.559 650.35C989.919 651.21 991.579 651.64 993.539 651.64C996.569 651.64 998.909 650.72 1000.55 648.89C1002.2 647.06 1003.02 644.48 1003.02 641.15V632.25C1003.02 628.85 1002.2 626.21 1000.55 624.36C998.899 622.5 996.569 621.57 993.539 621.57C991.579 621.57 989.919 621.99 988.559 622.82C987.199 623.65 986.159 624.78 985.439 626.2C984.719 627.62 984.359 629.2 984.359 630.91L983.539 622.99C984.869 620.38 986.639 618.47 988.829 617.27C991.019 616.07 993.469 615.47 996.159 615.47C1000.52 615.47 1003.89 616.93 1006.27 619.84C1008.65 622.76 1009.84 626.88 1009.84 632.21V641.15C1009.84 646.4 1008.61 650.48 1006.16 653.38C1003.7 656.28 1000.24 657.73 995.779 657.73H995.759Z" fill="white"/>
<path d="M1037.85 657.73C1032.18 657.73 1027.79 656.13 1024.68 652.92C1021.57 649.71 1020.02 645.18 1020.02 639.33V634.7C1020.02 628.58 1021.52 623.84 1024.51 620.49C1027.5 617.14 1031.71 615.46 1037.15 615.46C1042.27 615.46 1046.23 617.23 1049.04 620.78C1051.85 624.33 1053.25 629.32 1053.25 635.76V639.44H1024.84V633.66H1046.82V633.46C1046.72 629.74 1045.82 626.86 1044.14 624.81C1042.45 622.77 1040.12 621.74 1037.15 621.74C1033.75 621.74 1031.12 622.83 1029.25 625.01C1027.38 627.19 1026.45 630.27 1026.45 634.25V639.47C1026.45 643.24 1027.44 646.15 1029.43 648.18C1031.41 650.21 1034.22 651.23 1037.86 651.23C1039.61 651.23 1041.35 650.87 1043.07 650.14C1044.79 649.41 1046.32 648.39 1047.65 647.07L1052.2 651.58C1050.21 653.53 1047.97 655.04 1045.46 656.11C1042.95 657.18 1040.42 657.71 1037.86 657.71L1037.85 657.73Z" fill="white"/>
<path d="M1064.22 657.13V616.05H1071.04V657.13H1064.22ZM1087.38 624.6C1086.62 623.73 1085.66 623.07 1084.48 622.62C1083.3 622.17 1081.95 621.95 1080.4 621.95C1077.42 621.95 1075.12 622.76 1073.48 624.38C1071.85 626 1071.03 628.25 1071.03 631.13L1070.21 623.21C1071.57 620.78 1073.35 618.88 1075.54 617.51C1077.73 616.14 1080.16 615.45 1082.83 615.45C1084.68 615.45 1086.36 615.72 1087.87 616.26C1089.37 616.8 1090.68 617.6 1091.81 618.65L1087.38 624.59V624.6Z" fill="white"/>
<path d="M1099.06 606.48V599.59H1105.88V606.48H1099.06ZM1099.06 657.13V616.05H1105.88V657.13H1099.06Z" fill="white"/>
<path d="M1135.27 657.73C1129.6 657.73 1125.21 656.13 1122.1 652.92C1118.99 649.71 1117.44 645.18 1117.44 639.33V634.7C1117.44 628.58 1118.94 623.84 1121.93 620.49C1124.92 617.14 1129.13 615.46 1134.57 615.46C1139.69 615.46 1143.65 617.23 1146.46 620.78C1149.27 624.33 1150.67 629.32 1150.67 635.76V639.44H1122.26V633.66H1144.24V633.46C1144.14 629.74 1143.24 626.86 1141.56 624.81C1139.87 622.77 1137.54 621.74 1134.57 621.74C1131.17 621.74 1128.54 622.83 1126.67 625.01C1124.8 627.19 1123.87 630.27 1123.87 634.25V639.47C1123.87 643.24 1124.86 646.15 1126.85 648.18C1128.83 650.21 1131.64 651.23 1135.28 651.23C1137.03 651.23 1138.77 650.87 1140.49 650.14C1142.21 649.41 1143.74 648.39 1145.07 647.07L1149.62 651.58C1147.63 653.53 1145.39 655.04 1142.88 656.11C1140.37 657.18 1137.84 657.71 1135.28 657.71L1135.27 657.73Z" fill="white"/>
<path d="M1161.64 657.13V616.05H1168.46V657.13H1161.64ZM1187.5 657.13V632.24C1187.5 628.97 1186.66 626.44 1184.97 624.64C1183.28 622.84 1180.9 621.95 1177.82 621.95C1174.74 621.95 1172.54 622.74 1170.9 624.33C1169.27 625.91 1168.45 628.16 1168.45 631.06L1167.63 623.14C1169.01 620.5 1170.82 618.56 1173.06 617.32C1175.29 616.08 1177.76 615.46 1180.45 615.46C1184.87 615.46 1188.28 616.92 1190.7 619.83C1193.12 622.75 1194.32 626.87 1194.32 632.2V657.13H1187.5Z" fill="white"/>
<path d="M1203.33 622.15V616.06H1221.67V622.15H1203.33ZM1217.05 657.33C1213.71 657.33 1211.28 656.39 1209.78 654.52C1208.28 652.65 1207.53 649.96 1207.53 646.45V604.11H1214.35V646.53C1214.35 647.9 1214.64 648.96 1215.23 649.72C1215.82 650.47 1216.69 650.85 1217.84 650.85H1221.68V657.34H1217.06L1217.05 657.33Z" fill="white"/>
<path d="M1233.23 606.48V599.59H1240.05V606.48H1233.23ZM1233.23 657.13V616.05H1240.05V657.13H1233.23Z" fill="white"/>
<path d="M1265.8 657.73C1260.94 657.73 1257.23 656.65 1254.67 654.5C1252.11 652.35 1250.83 649.19 1250.83 645.02C1250.83 640.85 1252.01 638.01 1254.36 635.94C1256.71 633.87 1260.11 632.83 1264.55 632.83H1277.09L1277.64 638.73H1264.59C1262.24 638.73 1260.45 639.26 1259.22 640.33C1257.99 641.4 1257.38 642.96 1257.38 645.02C1257.38 647.24 1258.17 648.91 1259.75 650.05C1261.33 651.18 1263.64 651.75 1266.67 651.75C1269.94 651.75 1272.43 651.41 1274.15 650.72C1275.87 650.03 1276.74 649.02 1276.74 647.67L1277.56 653.25C1276.8 654.25 1275.85 655.08 1274.7 655.74C1273.55 656.4 1272.23 656.89 1270.74 657.22C1269.25 657.55 1267.61 657.72 1265.8 657.72V657.73ZM1276.73 657.13V631.09C1276.73 628.08 1275.93 625.75 1274.34 624.09C1272.75 622.43 1270.49 621.6 1267.56 621.6C1265.81 621.6 1264.08 621.88 1262.37 622.43C1260.66 622.98 1259.14 623.79 1257.8 624.84L1252.82 621.4C1254.36 619.53 1256.39 618.07 1258.91 617.03C1261.43 615.99 1264.23 615.47 1267.32 615.47C1272.41 615.47 1276.36 616.8 1279.15 619.47C1281.95 622.14 1283.34 625.89 1283.34 630.75V657.15H1276.72L1276.73 657.13Z" fill="white"/>
<path d="M1302.32 599.59V646.41C1302.32 647.78 1302.64 648.85 1303.28 649.62C1303.92 650.39 1304.81 650.77 1305.96 650.77H1309.72V657.22H1305.02C1302.02 657.22 1299.68 656.27 1298.01 654.37C1296.34 652.47 1295.5 649.79 1295.5 646.34V599.6H1302.32V599.59Z" fill="white"/>
<path d="M1353.57 646.88L1365.64 599.59H1370.34L1382.41 646.88L1393.46 599.59H1400.79L1386.09 657.13H1379.11L1368.22 614.35L1356.86 657.13H1349.88L1335.19 599.59H1342.52L1353.57 646.88Z" fill="white"/>
<path d="M1420.31 657.73C1414.98 657.73 1410.85 656.17 1407.93 653.04C1405 649.91 1403.54 645.51 1403.54 639.84V633.15C1403.54 627.53 1405 623.18 1407.93 620.09C1410.86 617 1414.98 615.46 1420.31 615.46C1425.64 615.46 1429.77 617 1432.69 620.09C1435.62 623.18 1437.08 627.53 1437.08 633.15V639.96C1437.08 645.61 1435.62 649.98 1432.69 653.08C1429.76 656.18 1425.64 657.73 1420.31 657.73ZM1420.27 651.24C1423.46 651.24 1425.92 650.26 1427.66 648.29C1429.4 646.33 1430.27 643.55 1430.27 639.96V633.15C1430.27 629.59 1429.4 626.83 1427.66 624.88C1425.92 622.93 1423.46 621.95 1420.27 621.95C1417.08 621.95 1414.7 622.93 1412.96 624.88C1411.22 626.83 1410.35 629.59 1410.35 633.15V639.96C1410.35 643.55 1411.22 646.33 1412.96 648.29C1414.7 650.26 1417.13 651.24 1420.27 651.24Z" fill="white"/>
<path d="M1448.44 657.13V616.05H1455.26V657.13H1448.44ZM1471.6 624.6C1470.84 623.73 1469.88 623.07 1468.7 622.62C1467.52 622.17 1466.17 621.95 1464.62 621.95C1461.64 621.95 1459.34 622.76 1457.7 624.38C1456.07 626 1455.25 628.25 1455.25 631.13L1454.43 623.21C1455.79 620.78 1457.57 618.88 1459.76 617.51C1461.95 616.14 1464.38 615.45 1467.05 615.45C1468.9 615.45 1470.58 615.72 1472.09 616.26C1473.59 616.8 1474.9 617.6 1476.03 618.65L1471.6 624.59V624.6Z" fill="white"/>
<path d="M1482.69 657.13V599.59H1489.51V657.13H1482.69ZM1485.63 651.12L1486.45 642.33L1508.43 616.05H1516.46L1485.62 651.11L1485.63 651.12ZM1510.71 657.13L1496.92 634.18L1501.15 628.8L1518.47 657.13H1510.71Z" fill="white"/>
<path d="M1539.32 657.73C1535.87 657.73 1532.68 657.22 1529.74 656.19C1526.8 655.16 1524.22 653.67 1522 651.72L1526 646.77C1528.22 648.38 1530.46 649.6 1532.72 650.43C1534.98 651.26 1537.18 651.68 1539.32 651.68C1542.85 651.68 1545.54 651.1 1547.39 649.94C1549.24 648.78 1550.17 647.09 1550.17 644.87C1550.17 643.05 1549.59 641.76 1548.43 641.01C1547.27 640.26 1545.74 639.77 1543.85 639.55C1541.96 639.33 1539.92 639.13 1537.76 638.98C1536.11 638.85 1534.48 638.64 1532.86 638.37C1531.24 638.09 1529.76 637.6 1528.43 636.89C1527.1 636.18 1526.03 635.14 1525.24 633.76C1524.44 632.39 1524.05 630.53 1524.05 628.18C1524.05 624.04 1525.42 620.89 1528.16 618.72C1530.9 616.56 1534.87 615.47 1540.07 615.47C1543 615.47 1545.79 615.89 1548.46 616.72C1551.12 617.55 1553.58 618.77 1555.83 620.38L1551.79 625.29C1549.8 624.05 1547.8 623.11 1545.77 622.48C1543.75 621.85 1541.81 621.53 1539.95 621.53C1536.87 621.53 1534.52 622.08 1532.9 623.19C1531.28 624.3 1530.47 625.91 1530.47 628.02C1530.47 629.55 1530.99 630.65 1532.04 631.31C1533.09 631.97 1534.46 632.4 1536.17 632.6C1537.88 632.8 1539.74 632.96 1541.75 633.09C1543.45 633.2 1545.17 633.39 1546.9 633.66C1548.64 633.94 1550.24 634.46 1551.7 635.22C1553.16 635.99 1554.34 637.13 1555.23 638.64C1556.12 640.16 1556.56 642.23 1556.56 644.87C1556.56 649.04 1555.09 652.22 1552.15 654.43C1549.21 656.63 1544.93 657.73 1539.32 657.73Z" fill="white"/>
<path d="M1566.75 673.83V616.05H1573.57V673.83H1566.75ZM1584.97 657.73C1582.15 657.73 1579.69 657.17 1577.6 656.05C1575.51 654.93 1573.98 653.14 1573.02 650.69L1573.57 642.1C1573.57 643.84 1573.93 645.44 1574.65 646.89C1575.37 648.34 1576.41 649.5 1577.77 650.35C1579.13 651.21 1580.79 651.64 1582.75 651.64C1585.78 651.64 1588.12 650.72 1589.76 648.89C1591.41 647.06 1592.23 644.48 1592.23 641.15V632.25C1592.23 628.85 1591.41 626.21 1589.76 624.36C1588.11 622.5 1585.78 621.57 1582.75 621.57C1580.79 621.57 1579.13 621.99 1577.77 622.82C1576.41 623.65 1575.37 624.78 1574.65 626.2C1573.93 627.62 1573.57 629.2 1573.57 630.91L1572.75 622.99C1574.08 620.38 1575.85 618.47 1578.04 617.27C1580.23 616.07 1582.68 615.47 1585.37 615.47C1589.73 615.47 1593.1 616.93 1595.48 619.84C1597.86 622.76 1599.05 626.88 1599.05 632.21V641.15C1599.05 646.4 1597.82 650.48 1595.37 653.38C1592.91 656.28 1589.45 657.73 1584.99 657.73H1584.97Z" fill="white"/>
<path d="M1623.41 657.73C1618.55 657.73 1614.84 656.65 1612.28 654.5C1609.72 652.35 1608.44 649.19 1608.44 645.02C1608.44 640.85 1609.62 638.01 1611.97 635.94C1614.32 633.87 1617.72 632.83 1622.16 632.83H1634.7L1635.25 638.73H1622.2C1619.85 638.73 1618.06 639.26 1616.83 640.33C1615.6 641.4 1614.99 642.96 1614.99 645.02C1614.99 647.24 1615.78 648.91 1617.36 650.05C1618.94 651.18 1621.25 651.75 1624.28 651.75C1627.55 651.75 1630.04 651.41 1631.76 650.72C1633.48 650.03 1634.35 649.02 1634.35 647.67L1635.17 653.25C1634.41 654.25 1633.46 655.08 1632.31 655.74C1631.16 656.4 1629.84 656.89 1628.35 657.22C1626.86 657.55 1625.22 657.72 1623.41 657.72V657.73ZM1634.34 657.13V631.09C1634.34 628.08 1633.54 625.75 1631.95 624.09C1630.36 622.43 1628.1 621.6 1625.17 621.6C1623.42 621.6 1621.69 621.88 1619.98 622.43C1618.27 622.98 1616.75 623.79 1615.41 624.84L1610.43 621.4C1611.97 619.53 1614 618.07 1616.52 617.03C1619.04 615.99 1621.84 615.47 1624.93 615.47C1630.02 615.47 1633.97 616.8 1636.76 619.47C1639.56 622.14 1640.95 625.89 1640.95 630.75V657.15H1634.33L1634.34 657.13Z" fill="white"/>
<path d="M1669.53 657.73C1663.78 657.73 1659.41 656.21 1656.42 653.18C1653.43 650.15 1651.93 645.71 1651.93 639.88V633.11C1651.93 627.33 1653.43 622.95 1656.42 619.95C1659.41 616.96 1663.78 615.46 1669.53 615.46C1672.8 615.46 1675.68 616.01 1678.17 617.12C1680.66 618.23 1682.7 619.86 1684.26 622.03L1679.28 626.5C1678.03 625 1676.58 623.86 1674.95 623.1C1673.32 622.34 1671.55 621.95 1669.64 621.95C1666.09 621.95 1663.38 622.89 1661.53 624.78C1659.68 626.67 1658.75 629.44 1658.75 633.11V639.88C1658.75 643.6 1659.68 646.42 1661.53 648.35C1663.38 650.28 1666.09 651.24 1669.64 651.24C1671.6 651.24 1673.42 650.85 1675.11 650.07C1676.8 649.29 1678.28 648.15 1679.56 646.65L1684.26 651.28C1682.69 653.39 1680.66 654.99 1678.17 656.09C1675.67 657.18 1672.79 657.73 1669.53 657.73Z" fill="white"/>
<path d="M1709.74 657.73C1704.07 657.73 1699.68 656.13 1696.57 652.92C1693.46 649.71 1691.91 645.18 1691.91 639.33V634.7C1691.91 628.58 1693.41 623.84 1696.4 620.49C1699.39 617.14 1703.6 615.46 1709.04 615.46C1714.16 615.46 1718.12 617.23 1720.93 620.78C1723.74 624.33 1725.14 629.32 1725.14 635.76V639.44H1696.73V633.66H1718.71V633.46C1718.61 629.74 1717.71 626.86 1716.03 624.81C1714.34 622.77 1712.01 621.74 1709.04 621.74C1705.64 621.74 1703.01 622.83 1701.14 625.01C1699.27 627.19 1698.34 630.27 1698.34 634.25V639.47C1698.34 643.24 1699.33 646.15 1701.32 648.18C1703.3 650.21 1706.11 651.23 1709.75 651.23C1711.5 651.23 1713.24 650.87 1714.96 650.14C1716.68 649.41 1718.21 648.39 1719.54 647.07L1724.09 651.58C1722.1 653.53 1719.86 655.04 1717.35 656.11C1714.84 657.18 1712.31 657.71 1709.75 657.71L1709.74 657.73Z" fill="white"/>
<path d="M1750.3 657.73C1746.85 657.73 1743.66 657.22 1740.72 656.19C1737.78 655.16 1735.2 653.67 1732.98 651.72L1736.98 646.77C1739.2 648.38 1741.44 649.6 1743.7 650.43C1745.96 651.26 1748.16 651.68 1750.3 651.68C1753.83 651.68 1756.52 651.1 1758.37 649.94C1760.22 648.78 1761.15 647.09 1761.15 644.87C1761.15 643.05 1760.57 641.76 1759.41 641.01C1758.25 640.26 1756.72 639.77 1754.83 639.55C1752.94 639.33 1750.9 639.13 1748.74 638.98C1747.09 638.85 1745.46 638.64 1743.84 638.37C1742.22 638.09 1740.74 637.6 1739.41 636.89C1738.08 636.18 1737.01 635.14 1736.22 633.76C1735.42 632.39 1735.03 630.53 1735.03 628.18C1735.03 624.04 1736.4 620.89 1739.14 618.72C1741.88 616.56 1745.85 615.47 1751.05 615.47C1753.98 615.47 1756.77 615.89 1759.44 616.72C1762.1 617.55 1764.56 618.77 1766.81 620.38L1762.77 625.29C1760.78 624.05 1758.78 623.11 1756.75 622.48C1754.73 621.85 1752.79 621.53 1750.93 621.53C1747.85 621.53 1745.5 622.08 1743.88 623.19C1742.26 624.3 1741.45 625.91 1741.45 628.02C1741.45 629.55 1741.97 630.65 1743.02 631.31C1744.07 631.97 1745.44 632.4 1747.15 632.6C1748.86 632.8 1750.72 632.96 1752.73 633.09C1754.43 633.2 1756.15 633.39 1757.88 633.66C1759.62 633.94 1761.22 634.46 1762.68 635.22C1764.14 635.99 1765.32 637.13 1766.21 638.64C1767.1 640.16 1767.54 642.23 1767.54 644.87C1767.54 649.04 1766.07 652.22 1763.13 654.43C1760.19 656.63 1755.91 657.73 1750.3 657.73Z" fill="white"/>
<defs>
<clipPath id="clip0_98_7163">
<rect width="316.09" height="259.85" fill="white" transform="translate(1434 263.62)"/>
</clipPath>
</defs>
</svg>
